<?xml version="1.0" encoding="UTF-8" standalone="no"?>
<!DOCTYPE svg PUBLIC "-//W3C//DTD SVG 1.1//EN" "http://www.w3.org/Graphics/SVG/1.1/DTD/svg11.dtd">
<svg width="100%" height="100%" viewBox="0 0 1024 1024" version="1.1" xmlns="http://www.w3.org/2000/svg" xmlns:xlink="http://www.w3.org/1999/xlink" xml:space="preserve" xmlns:serif="http://www.serif.com/" style="fill-rule:evenodd;clip-rule:evenodd;stroke-miterlimit:10;">
    <g transform="matrix(1,0,0,1,18.6452,-32.3203)">
        <g transform="matrix(1,0,0,1,23,-98)">
            <path d="M216.845,484.213L168.989,516.094L148.599,465.119L216.845,484.213Z" style="fill:rgb(23,28,41);fill-rule:nonzero;stroke:rgb(23,28,41);stroke-width:1px;"/>
        </g>
        <g transform="matrix(1,0,0,1,23,-98)">
            <path d="M216.845,484.213L148.599,465.119L176.047,414.143L216.845,484.213Z" style="fill:rgb(69,70,74);fill-rule:nonzero;stroke:rgb(69,70,74);stroke-width:1px;"/>
        </g>
        <g transform="matrix(1,0,0,1,23,-98)">
            <path d="M230.516,554.217L201.927,590.597L168.989,516.094L230.516,554.217Z" style="fill:rgb(15,25,37);fill-rule:nonzero;stroke:rgb(15,25,37);stroke-width:1px;"/>
        </g>
        <g transform="matrix(1,0,0,1,23,-98)">
            <path d="M230.516,554.217L168.989,516.094L216.845,484.213L230.516,554.217Z" style="fill:rgb(14,23,36);fill-rule:nonzero;stroke:rgb(14,23,36);stroke-width:1px;"/>
        </g>
        <g transform="matrix(1,0,0,1,23,-98)">
            <path d="M250.55,528.642L230.516,554.217L216.845,484.213L250.55,528.642Z" style="fill:rgb(12,22,35);fill-rule:nonzero;stroke:rgb(12,22,35);stroke-width:1px;"/>
        </g>
        <g transform="matrix(1,0,0,1,23,-98)">
            <path d="M217.443,396.614L216.845,484.213L176.047,414.143L217.443,396.614Z" style="fill:rgb(58,60,67);fill-rule:nonzero;stroke:rgb(58,60,67);stroke-width:1px;"/>
        </g>
        <g transform="matrix(1,0,0,1,23,-98)">
            <path d="M259.961,516.879L250.55,528.642L216.845,484.213L259.961,516.879Z" style="fill:rgb(10,20,34);fill-rule:nonzero;stroke:rgb(10,20,34);stroke-width:1px;"/>
        </g>
        <g transform="matrix(1,0,0,1,23,-98)">
            <path d="M273.711,439.541L216.845,484.213L217.443,396.614L273.711,439.541Z" style="fill:rgb(9,19,31);fill-rule:nonzero;stroke:rgb(9,19,31);stroke-width:1px;"/>
        </g>
        <g transform="matrix(1,0,0,1,23,-98)">
            <path d="M273.711,439.541L217.443,396.614L252.84,388.406L273.711,439.541Z" style="fill:rgb(28,28,40);fill-rule:nonzero;stroke:rgb(28,28,40);stroke-width:1px;"/>
        </g>
        <g transform="matrix(1,0,0,1,23,-98)">
            <path d="M273.711,439.541L259.961,516.879L216.845,484.213L273.711,439.541Z" style="fill:rgb(11,21,33);fill-rule:nonzero;stroke:rgb(11,21,33);stroke-width:1px;"/>
        </g>
        <g transform="matrix(1,0,0,1,23,-98)">
            <path d="M282.581,380.057L273.711,439.541L252.84,388.406L282.581,380.057Z" style="fill:rgb(35,37,47);fill-rule:nonzero;stroke:rgb(35,37,47);stroke-width:1px;"/>
        </g>
        <g transform="matrix(1,0,0,1,23,-98)">
            <path d="M311.462,382.168L273.711,439.541L282.581,380.057L311.462,382.168Z" style="fill:rgb(24,30,41);fill-rule:nonzero;stroke:rgb(24,30,41);stroke-width:1px;"/>
        </g>
        <g transform="matrix(1,0,0,1.02941,23,-116.754)">
            <path d="M346.627,645.353L296.036,671.679L293.572,637.677L346.627,645.353Z" style="fill:rgb(56,59,65);fill-rule:nonzero;stroke:rgb(56,59,65);stroke-width:1px;"/>
        </g>
        <g transform="matrix(1,0,0,1,23,-98)">
            <path d="M339.201,455.461L259.961,516.879L273.711,439.541L339.201,455.461Z" style="fill:rgb(15,23,36);fill-rule:nonzero;stroke:rgb(15,23,36);stroke-width:1px;"/>
        </g>
        <g transform="matrix(1,0,0,1,23,-98)">
            <path d="M348.206,664.31L302.935,699.275L296.036,671.679L348.206,664.31Z" style="fill:rgb(42,45,53);fill-rule:nonzero;stroke:rgb(42,45,53);stroke-width:1px;"/>
        </g>
        <g transform="matrix(0.980832,0,0,1,29.6744,-98)">
            <path d="M348.206,664.31L296.036,671.679L346.627,645.353L348.206,664.31Z" style="fill:rgb(41,46,55);fill-rule:nonzero;stroke:rgb(41,46,55);stroke-width:1px;"/>
        </g>
        <g transform="matrix(1,0,0,1,23,-98)">
            <path d="M346.627,645.353L293.572,637.677L292.126,602.7L346.627,645.353Z" style="fill:rgb(105,104,102);fill-rule:nonzero;stroke:rgb(105,104,102);stroke-width:1px;"/>
        </g>
        <g transform="matrix(1,0,0,1,23,-98)">
            <path d="M340.308,388.647L339.201,455.461L311.462,382.168L340.308,388.647Z" style="fill:rgb(59,58,62);fill-rule:nonzero;stroke:rgb(59,58,62);stroke-width:1px;"/>
        </g>
        <g transform="matrix(1,0,0,1,23,-98)">
            <path d="M339.201,455.461L273.711,439.541L311.462,382.168L339.201,455.461Z" style="fill:rgb(17,23,36);fill-rule:nonzero;stroke:rgb(17,23,36);stroke-width:1px;"/>
        </g>
        <g transform="matrix(1,0,0,1,23,-98)">
            <path d="M339.201,455.461L271.724,527.074L259.961,516.879L339.201,455.461Z" style="fill:rgb(7,16,29);fill-rule:nonzero;stroke:rgb(7,16,29);stroke-width:1px;"/>
        </g>
        <g transform="matrix(1,0,0,1,23,-98)">
            <path d="M348.206,664.31L324.125,718.494L302.935,699.275L348.206,664.31Z" style="fill:rgb(65,66,70);fill-rule:nonzero;stroke:rgb(65,66,70);stroke-width:1px;"/>
        </g>
        <g transform="matrix(1,0,0,1,23,-98)">
            <path d="M339.201,455.461L288.966,542.671L271.724,527.074L339.201,455.461Z" style="fill:rgb(1,13,26);fill-rule:nonzero;stroke:rgb(1,13,26);stroke-width:1px;"/>
        </g>
        <g transform="matrix(1,0,0,1,23,-98)">
            <path d="M375.062,646.143L348.206,664.31L346.627,645.353L375.062,646.143Z" style="fill:rgb(67,69,75);fill-rule:nonzero;stroke:rgb(67,69,75);stroke-width:1px;"/>
        </g>
        <g transform="matrix(1,0,0,1,23,-98)">
            <path d="M377.431,624.027L375.062,646.143L346.627,645.353L377.431,624.027Z" style="fill:rgb(28,32,45);fill-rule:nonzero;stroke:rgb(28,32,45);stroke-width:1px;"/>
        </g>
        <g transform="matrix(1,0,0,1,23,-98)">
            <path d="M376.642,667.469L348.206,664.31L375.062,646.143L376.642,667.469Z" style="fill:rgb(108,112,111);fill-rule:nonzero;stroke:rgb(108,112,111);stroke-width:1px;"/>
        </g>
        <g transform="matrix(1,0,0,1,23,-98)">
            <path d="M373.482,400.495L339.201,455.461L340.308,388.647L373.482,400.495Z" style="fill:rgb(42,40,47);fill-rule:nonzero;stroke:rgb(42,40,47);stroke-width:1px;"/>
        </g>
        <g transform="matrix(1,0,0,1,23,-98)">
            <path d="M377.431,624.027L346.627,645.353L292.126,602.7L377.431,624.027Z" style="fill:rgb(36,43,56);fill-rule:nonzero;stroke:rgb(36,43,56);stroke-width:1px;"/>
        </g>
        <g transform="matrix(1,0,0,1,23,-98)">
            <path d="M376.642,667.469L324.125,718.494L348.206,664.31L376.642,667.469Z" style="fill:rgb(26,33,46);fill-rule:nonzero;stroke:rgb(26,33,46);stroke-width:1px;"/>
        </g>
        <g transform="matrix(1,0,0,1,23,-98)">
            <path d="M377.431,624.027L292.126,602.7L288.966,542.671L377.431,624.027Z" style="fill:rgb(18,25,38);fill-rule:nonzero;stroke:rgb(18,25,38);stroke-width:1px;"/>
        </g>
        <g transform="matrix(1,0,0,1,23,-98)">
            <path d="M419.285,595.132L377.431,624.027L288.966,542.671L419.285,595.132Z" style="fill:rgb(12,22,36);fill-rule:nonzero;stroke:rgb(12,22,36);stroke-width:1px;"/>
        </g>
        <g transform="matrix(1,0,0,1,23,-98)">
            <path d="M418.107,736.875L359.427,805.97L336.937,755.945L418.107,736.875Z" style="fill:rgb(25,34,45);fill-rule:nonzero;stroke:rgb(25,34,45);stroke-width:1px;"/>
        </g>
        <g transform="matrix(1,0,0,1,23,-98)">
            <path d="M418.107,736.875L336.937,755.945L324.125,718.494L418.107,736.875Z" style="fill:rgb(27,35,47);fill-rule:nonzero;stroke:rgb(27,35,47);stroke-width:1px;"/>
        </g>
        <g transform="matrix(1,0,0,1,23,-98)">
            <path d="M418.107,736.875L324.125,718.494L376.642,667.469L418.107,736.875Z" style="fill:rgb(33,38,50);fill-rule:nonzero;stroke:rgb(33,38,50);stroke-width:1px;"/>
        </g>
        <g transform="matrix(1,0,0,1,23,-98)">
            <path d="M443.031,909.377L400.281,942.148L383.859,886.876L443.031,909.377Z" style="fill:rgb(25,34,45);fill-rule:nonzero;stroke:rgb(25,34,45);stroke-width:1px;"/>
        </g>
        <g transform="matrix(1,0,0,1,23,-98)">
            <path d="M419.285,595.132L288.966,542.671L339.201,455.461L419.285,595.132Z" style="fill:rgb(14,23,39);fill-rule:nonzero;stroke:rgb(14,23,39);stroke-width:1px;"/>
        </g>
        <g transform="matrix(1,0,0,1,23,-98)">
            <path d="M443.031,909.377L434.726,970.185L400.281,942.148L443.031,909.377Z" style="fill:rgb(47,48,54);fill-rule:nonzero;stroke:rgb(47,48,54);stroke-width:1px;"/>
        </g>
        <g transform="matrix(1,0,0,1,23,-98)">
            <path d="M419.285,595.132L375.062,646.143L377.431,624.027L419.285,595.132Z" style="fill:rgb(11,21,35);fill-rule:nonzero;stroke:rgb(11,21,35);stroke-width:1px;"/>
        </g>
        <g transform="matrix(1,0,0,1,23,-98)">
            <path d="M417.715,394.176L339.201,455.461L373.482,400.495L417.715,394.176Z" style="fill:rgb(48,47,54);fill-rule:nonzero;stroke:rgb(48,47,54);stroke-width:1px;"/>
        </g>
        <g transform="matrix(1,0,0,1,23,-98)">
            <path d="M458.357,974.19L434.726,970.185L443.031,909.377L458.357,974.19Z" style="fill:rgb(88,89,83);fill-rule:nonzero;stroke:rgb(88,89,83);stroke-width:1px;"/>
        </g>
        <g transform="matrix(1,0,0,1,23,-98)">
            <path d="M488.013,470.793L339.201,455.461L417.715,394.176L488.013,470.793Z" style="fill:rgb(70,59,63);fill-rule:nonzero;stroke:rgb(70,59,63);stroke-width:1px;"/>
        </g>
        <g transform="matrix(1,0,0,1,23,-98)">
            <path d="M488.654,840.364L383.859,886.876L365.034,836.41L488.654,840.364Z" style="fill:rgb(14,24,35);fill-rule:nonzero;stroke:rgb(14,24,35);stroke-width:1px;"/>
        </g>
        <g transform="matrix(1,0,0,1,23,-98)">
            <path d="M488.802,795.428L359.427,805.97L418.107,736.875L488.802,795.428Z" style="fill:rgb(18,28,42);fill-rule:nonzero;stroke:rgb(18,28,42);stroke-width:1px;"/>
        </g>
        <g transform="matrix(1,0,0,1,23,-98)">
            <path d="M488.654,840.364L443.031,909.377L383.859,886.876L488.654,840.364Z" style="fill:rgb(18,25,38);fill-rule:nonzero;stroke:rgb(18,25,38);stroke-width:1px;"/>
        </g>
        <g transform="matrix(1,0,0,1,23,-98)">
            <path d="M488.802,795.428L365.034,836.41L359.427,805.97L488.802,795.428Z" style="fill:rgb(20,29,42);fill-rule:nonzero;stroke:rgb(20,29,42);stroke-width:1px;"/>
        </g>
        <g transform="matrix(1,0,0,1,23,-98)">
            <path d="M490.382,703.013L418.107,736.875L376.642,667.469L490.382,703.013Z" style="fill:rgb(19,26,41);fill-rule:nonzero;stroke:rgb(19,26,41);stroke-width:1px;"/>
        </g>
        <g transform="matrix(1,0,0,1,23,-98)">
            <path d="M489.838,755.092L488.802,795.428L418.107,736.875L489.838,755.092Z" style="fill:rgb(13,22,37);fill-rule:nonzero;stroke:rgb(13,22,37);stroke-width:1px;"/>
        </g>
        <g transform="matrix(1,0,0,1,23,-98)">
            <path d="M489.592,877.574L443.031,909.377L488.654,840.364L489.592,877.574Z" style="fill:rgb(9,20,30);fill-rule:nonzero;stroke:rgb(9,20,30);stroke-width:1px;"/>
        </g>
        <g transform="matrix(1,0,0,1,23,-98)">
            <path d="M488.802,795.428L488.654,840.364L365.034,836.41L488.802,795.428Z" style="fill:rgb(13,21,34);fill-rule:nonzero;stroke:rgb(13,21,34);stroke-width:1px;"/>
        </g>
        <g transform="matrix(1,0,0,1,23,-98)">
            <path d="M488.013,470.793L419.285,595.132L339.201,455.461L488.013,470.793Z" style="fill:rgb(17,22,36);fill-rule:nonzero;stroke:rgb(17,22,36);stroke-width:1px;"/>
        </g>
        <g transform="matrix(1,0,0,1,23,-98)">
            <path d="M483.916,621.263L376.642,667.469L375.062,646.143L483.916,621.263Z" style="fill:rgb(12,22,36);fill-rule:nonzero;stroke:rgb(12,22,36);stroke-width:1px;"/>
        </g>
        <g transform="matrix(1,0,0,1,23,-98)">
            <path d="M483.916,621.263L375.062,646.143L419.285,595.132L483.916,621.263Z" style="fill:rgb(11,23,39);fill-rule:nonzero;stroke:rgb(11,23,39);stroke-width:1px;"/>
        </g>
        <g transform="matrix(1,0,0,1,23,-98)">
            <path d="M496.701,967.618L458.357,974.19L443.031,909.377L496.701,967.618Z" style="fill:rgb(84,86,82);fill-rule:nonzero;stroke:rgb(84,86,82);stroke-width:1px;"/>
        </g>
        <g transform="matrix(1,0,0,1,23,-98)">
            <path d="M490.382,547.41L483.916,621.263L419.285,595.132L490.382,547.41Z" style="fill:rgb(12,21,38);fill-rule:nonzero;stroke:rgb(12,21,38);stroke-width:1px;"/>
        </g>
        <g transform="matrix(1,0,0,1,23,-98)">
            <path d="M490.382,547.41L419.285,595.132L488.013,470.793L490.382,547.41Z" style="fill:rgb(15,25,39);fill-rule:nonzero;stroke:rgb(15,25,39);stroke-width:1px;"/>
        </g>
        <g transform="matrix(1,0,0,1,23,-98)">
            <path d="M490.382,703.013L489.838,755.092L418.107,736.875L490.382,703.013Z" style="fill:rgb(13,23,37);fill-rule:nonzero;stroke:rgb(13,23,37);stroke-width:1px;"/>
        </g>
        <g transform="matrix(1,0,0,1,23,-98)">
            <path d="M490.382,703.013L376.642,667.469L483.916,621.263L490.382,703.013Z" style="fill:rgb(19,27,42);fill-rule:nonzero;stroke:rgb(19,27,42);stroke-width:1px;"/>
        </g>
        <g transform="matrix(1,0,0,1,23,-98)">
            <path d="M488.013,470.793L417.715,394.176L454.048,374.429L488.013,470.793Z" style="fill:rgb(56,49,54);fill-rule:nonzero;stroke:rgb(56,49,54);stroke-width:1px;"/>
        </g>
        <g transform="matrix(1,0,0,1,23,-98)">
            <path d="M488.013,470.793L454.048,374.429L484.472,371.008L488.013,470.793Z" style="fill:rgb(75,66,67);fill-rule:nonzero;stroke:rgb(75,66,67);stroke-width:1px;"/>
        </g>
        <g transform="matrix(1,0,0,1,23,-98)">
            <path d="M496.701,967.618L443.031,909.377L489.592,877.574L496.701,967.618Z" style="fill:rgb(18,23,33);fill-rule:nonzero;stroke:rgb(18,23,33);stroke-width:1px;"/>
        </g>
        <g transform="matrix(1,0,0,1,23,-98)">
            <path d="M531.455,376.799L488.013,470.793L484.472,371.008L531.455,376.799Z" style="fill:rgb(196,146,113);fill-rule:nonzero;stroke:rgb(196,146,113);stroke-width:1px;"/>
        </g>
        <g transform="matrix(1,0,0,1,23,-98)">
            <path d="M563.84,640.614L490.382,703.013L483.916,621.263L563.84,640.614Z" style="fill:rgb(161,137,118);fill-rule:nonzero;stroke:rgb(161,137,118);stroke-width:1px;"/>
        </g>
        <g transform="matrix(1,0,0,1,23,-98)">
            <path d="M566.34,883.141L489.592,877.574L488.654,840.364L566.34,883.141Z" style="fill:rgb(33,36,39);fill-rule:nonzero;stroke:rgb(33,36,39);stroke-width:1px;"/>
        </g>
        <g transform="matrix(1,0,0,1,23,-98)">
            <path d="M559.1,459.735L488.013,470.793L531.455,376.799L559.1,459.735Z" style="fill:rgb(160,122,97);fill-rule:nonzero;stroke:rgb(160,122,97);stroke-width:1px;"/>
        </g>
        <g transform="matrix(1,0,0,1,23,-98)">
            <path d="M546.473,968.182L496.701,967.618L489.592,877.574L546.473,968.182Z" style="fill:rgb(51,52,57);fill-rule:nonzero;stroke:rgb(51,52,57);stroke-width:1px;"/>
        </g>
        <g transform="matrix(1,0,0,1,23,-98)">
            <path d="M578.847,420.241L559.1,459.735L531.455,376.799L578.847,420.241Z" style="fill:rgb(247,187,134);fill-rule:nonzero;stroke:rgb(247,187,134);stroke-width:1px;"/>
        </g>
        <g transform="matrix(1,0,0,1,23,-98)">
            <path d="M578.847,420.241L531.455,376.799L566.999,378.379L578.847,420.241Z" style="fill:rgb(252,201,161);fill-rule:nonzero;stroke:rgb(252,201,161);stroke-width:1px;"/>
        </g>
        <g transform="matrix(1,0,0,1,23,-98)">
            <path d="M566.34,883.141L546.473,968.182L489.592,877.574L566.34,883.141Z" style="fill:rgb(33,34,39);fill-rule:nonzero;stroke:rgb(33,34,39);stroke-width:1px;"/>
        </g>
        <g transform="matrix(1,0,0,1,23,-98)">
            <path d="M582.738,789.347L488.802,795.428L489.838,755.092L582.738,789.347Z" style="fill:rgb(105,86,79);fill-rule:nonzero;stroke:rgb(105,86,79);stroke-width:1px;"/>
        </g>
        <g transform="matrix(1,0,0,1,23,-98)">
            <path d="M568.579,956.56L546.473,968.182L566.34,883.141L568.579,956.56Z" style="fill:rgb(136,111,95);fill-rule:nonzero;stroke:rgb(136,111,95);stroke-width:1px;"/>
        </g>
        <g transform="matrix(1,0,0,1,23,-98)">
            <path d="M559.1,459.735L490.382,547.41L488.013,470.793L559.1,459.735Z" style="fill:rgb(73,55,52);fill-rule:nonzero;stroke:rgb(73,55,52);stroke-width:1px;"/>
        </g>
        <g transform="matrix(1,0,0,1,23,-98)">
            <path d="M590.695,614.548L563.84,640.614L490.382,547.41L590.695,614.548Z" style="fill:rgb(136,111,93);fill-rule:nonzero;stroke:rgb(136,111,93);stroke-width:1px;"/>
        </g>
        <g transform="matrix(1,0,0,1,23,-98)">
            <path d="M582.738,789.347L488.654,840.364L488.802,795.428L582.738,789.347Z" style="fill:rgb(103,84,77);fill-rule:nonzero;stroke:rgb(103,84,77);stroke-width:1px;"/>
        </g>
        <g transform="matrix(1,0,0,1,23,-98)">
            <path d="M563.84,640.614L483.916,621.263L490.382,547.41L563.84,640.614Z" style="fill:rgb(138,114,97);fill-rule:nonzero;stroke:rgb(138,114,97);stroke-width:1px;"/>
        </g>
        <g transform="matrix(1,0,0,1,23,-98)">
            <path d="M582.738,789.347L566.34,883.141L488.654,840.364L582.738,789.347Z" style="fill:rgb(126,100,84);fill-rule:nonzero;stroke:rgb(126,100,84);stroke-width:1px;"/>
        </g>
        <g transform="matrix(1,0,0,1,23,-98)">
            <path d="M603.333,635.085L563.84,640.614L590.695,614.548L603.333,635.085Z" style="fill:rgb(81,81,78);fill-rule:nonzero;stroke:rgb(81,81,78);stroke-width:1px;"/>
        </g>
        <g transform="matrix(1,0,0,1,23,-98)">
            <path d="M604.123,923.386L568.579,956.56L566.34,883.141L604.123,923.386Z" style="fill:rgb(183,158,132);fill-rule:nonzero;stroke:rgb(183,158,132);stroke-width:1px;"/>
        </g>
        <g transform="matrix(1,0,0,1,23,-98)">
            <path d="M610.442,657.991L563.84,640.614L603.333,635.085L610.442,657.991Z" style="fill:rgb(160,159,148);fill-rule:nonzero;stroke:rgb(160,159,148);stroke-width:1px;"/>
        </g>
        <g transform="matrix(1,0,0,1,23,-98)">
            <path d="M611.232,439.198L559.1,459.735L578.847,420.241L611.232,439.198Z" style="fill:rgb(147,100,76);fill-rule:nonzero;stroke:rgb(147,100,76);stroke-width:1px;"/>
        </g>
        <g transform="matrix(1,0,0,1,23,-98)">
            <path d="M582.738,789.347L489.838,755.092L490.382,703.013L582.738,789.347Z" style="fill:rgb(108,86,77);fill-rule:nonzero;stroke:rgb(108,86,77);stroke-width:1px;"/>
        </g>
        <g transform="matrix(1,0,0,1,23,-98)">
            <path d="M624.659,631.136L610.442,657.991L603.333,635.085L624.659,631.136Z" style="fill:rgb(118,120,116);fill-rule:nonzero;stroke:rgb(118,120,116);stroke-width:1px;"/>
        </g>
        <g transform="matrix(1,0,0,1,23,-98)">
            <path d="M624.659,631.136L603.333,635.085L590.695,614.548L624.659,631.136Z" style="fill:rgb(68,74,81);fill-rule:nonzero;stroke:rgb(68,74,81);stroke-width:1px;"/>
        </g>
        <g transform="matrix(1,0,0,1,23,-98)">
            <path d="M619.13,864.146L566.34,883.141L582.738,789.347L619.13,864.146Z" style="fill:rgb(166,136,110);fill-rule:nonzero;stroke:rgb(166,136,110);stroke-width:1px;"/>
        </g>
        <g transform="matrix(1,0,0,1,23,-98)">
            <path d="M619.13,864.146L604.123,923.386L566.34,883.141L619.13,864.146Z" style="fill:rgb(184,152,124);fill-rule:nonzero;stroke:rgb(184,152,124);stroke-width:1px;"/>
        </g>
        <g transform="matrix(1,0,0,1,23,-98)">
            <path d="M610.442,657.991L490.382,703.013L563.84,640.614L610.442,657.991Z" style="fill:rgb(61,51,49);fill-rule:nonzero;stroke:rgb(61,51,49);stroke-width:1px;"/>
        </g>
        <g transform="matrix(1,0,0,1,23,-98)">
            <path d="M610.442,657.991L582.738,789.347L490.382,703.013L610.442,657.991Z" style="fill:rgb(132,100,84);fill-rule:nonzero;stroke:rgb(132,100,84);stroke-width:1px;"/>
        </g>
        <g transform="matrix(1,0,0,1,23,-98)">
            <path d="M597.804,358.632L578.847,420.241L566.999,378.379L597.804,358.632Z" style="fill:rgb(241,181,124);fill-rule:nonzero;stroke:rgb(241,181,124);stroke-width:1px;"/>
        </g>
        <g transform="matrix(1,0,0,1,23,-98)">
            <path d="M646.776,496.069L559.1,459.735L611.232,439.198L646.776,496.069Z" style="fill:rgb(112,78,64);fill-rule:nonzero;stroke:rgb(112,78,64);stroke-width:1px;"/>
        </g>
        <g transform="matrix(1,0,0,1,23,-98)">
            <path d="M590.695,614.548L490.382,547.41L559.1,459.735L590.695,614.548Z" style="fill:rgb(70,54,50);fill-rule:nonzero;stroke:rgb(70,54,50);stroke-width:1px;"/>
        </g>
        <g transform="matrix(1,0,0,1,23,-98)">
            <path d="M627.029,775.681L582.738,789.347L610.442,657.991L627.029,775.681Z" style="fill:rgb(142,117,96);fill-rule:nonzero;stroke:rgb(142,117,96);stroke-width:1px;"/>
        </g>
        <g transform="matrix(1,0,0,1,23,-98)">
            <path d="M654.674,703.013L627.029,775.681L610.442,657.991L654.674,703.013Z" style="fill:rgb(171,138,109);fill-rule:nonzero;stroke:rgb(171,138,109);stroke-width:1px;"/>
        </g>
        <g transform="matrix(1,0,0,1,23,-98)">
            <path d="M646.776,496.069L590.695,614.548L559.1,459.735L646.776,496.069Z" style="fill:rgb(89,56,46);fill-rule:nonzero;stroke:rgb(89,56,46);stroke-width:1px;"/>
        </g>
        <g transform="matrix(1,0,0,1,23,-98)">
            <path d="M627.029,775.681L619.13,864.146L582.738,789.347L627.029,775.681Z" style="fill:rgb(186,157,129);fill-rule:nonzero;stroke:rgb(186,157,129);stroke-width:1px;"/>
        </g>
        <g transform="matrix(1,0,0,1,23,-98)">
            <path d="M611.232,439.198L578.847,420.241L597.804,358.632L611.232,439.198Z" style="fill:rgb(61,40,41);fill-rule:nonzero;stroke:rgb(61,40,41);stroke-width:1px;"/>
        </g>
        <g transform="matrix(1,0,0,1,23,-98)">
            <path d="M662.573,680.107L654.674,703.013L610.442,657.991L662.573,680.107Z" style="fill:rgb(182,144,113);fill-rule:nonzero;stroke:rgb(182,144,113);stroke-width:1px;"/>
        </g>
        <g transform="matrix(1,0,0,1,23,-98)">
            <path d="M662.573,680.107L610.442,657.991L624.659,631.136L662.573,680.107Z" style="fill:rgb(86,67,60);fill-rule:nonzero;stroke:rgb(86,67,60);stroke-width:1px;"/>
        </g>
        <g transform="matrix(1,0,0,1,23,-98)">
            <path d="M676.79,520.554L676.001,523.714L646.776,496.069L676.79,520.554Z" style="fill:rgb(82,59,48);fill-rule:nonzero;stroke:rgb(82,59,48);stroke-width:1px;"/>
        </g>
        <g transform="matrix(1,0,0,1,23,-98)">
            <path d="M676.001,523.714L624.659,631.136L590.695,614.548L676.001,523.714Z" style="fill:rgb(128,85,63);fill-rule:nonzero;stroke:rgb(128,85,63);stroke-width:1px;"/>
        </g>
        <g transform="matrix(1,0,0,1,23,-98)">
            <path d="M676.001,523.714L670.471,621.657L624.659,631.136L676.001,523.714Z" style="fill:rgb(137,97,72);fill-rule:nonzero;stroke:rgb(137,97,72);stroke-width:1px;"/>
        </g>
        <g transform="matrix(1,0,0,1,23,-98)">
            <path d="M676.001,523.714L590.695,614.548L646.776,496.069L676.001,523.714Z" style="fill:rgb(114,79,64);fill-rule:nonzero;stroke:rgb(114,79,64);stroke-width:1px;"/>
        </g>
        <g transform="matrix(1,0,0,1,23,-98)">
            <path d="M670.471,621.657L662.573,680.107L624.659,631.136L670.471,621.657Z" style="fill:rgb(178,141,108);fill-rule:nonzero;stroke:rgb(178,141,108);stroke-width:1px;"/>
        </g>
        <g transform="matrix(1,0,0,1,23,-98)">
            <path d="M648.355,315.189L597.804,358.632L618.34,325.458L648.355,315.189Z" style="fill:rgb(172,120,96);fill-rule:nonzero;stroke:rgb(172,120,96);stroke-width:1px;"/>
        </g>
        <g transform="matrix(1,0,0,1,23,-98)">
            <path d="M708.385,339.675L648.355,315.189L702.066,310.45L708.385,339.675Z" style="fill:rgb(251,218,177);fill-rule:nonzero;stroke:rgb(251,218,177);stroke-width:1px;"/>
        </g>
        <g transform="matrix(1,0,0,1,23,-98)">
            <path d="M717.074,485.8L676.79,520.554L646.776,496.069L717.074,485.8Z" style="fill:rgb(125,94,74);fill-rule:nonzero;stroke:rgb(125,94,74);stroke-width:1px;"/>
        </g>
        <g transform="matrix(1,0,0,1,23,-98)">
            <path d="M717.074,485.8L646.776,496.069L611.232,439.198L717.074,485.8Z" style="fill:rgb(66,44,43);fill-rule:nonzero;stroke:rgb(66,44,43);stroke-width:1px;"/>
        </g>
        <g transform="matrix(1,0,0,1,23,-98)">
            <path d="M708.385,339.675L611.232,439.198L597.804,358.632L708.385,339.675Z" style="fill:rgb(150,68,69);fill-rule:nonzero;stroke:rgb(150,68,69);stroke-width:1px;"/>
        </g>
        <g transform="matrix(1,0,0,1,23,-98)">
            <path d="M708.385,339.675L597.804,358.632L648.355,315.189L708.385,339.675Z" style="fill:rgb(182,116,103);fill-rule:nonzero;stroke:rgb(182,116,103);stroke-width:1px;"/>
        </g>
        <g transform="matrix(1,0,0,1,23,-98)">
            <path d="M747.878,416.292L611.232,439.198L708.385,339.675L747.878,416.292Z" style="fill:rgb(134,60,65);fill-rule:nonzero;stroke:rgb(134,60,65);stroke-width:1px;"/>
        </g>
        <g transform="matrix(1,0,0,1,23,-98)">
            <path d="M747.878,416.292L717.074,485.8L611.232,439.198L747.878,416.292Z" style="fill:rgb(86,30,38);fill-rule:nonzero;stroke:rgb(86,30,38);stroke-width:1px;"/>
        </g>
        <g transform="matrix(1,0,0,1,23,-98)">
            <path d="M747.878,416.292L746.299,454.996L717.074,485.8L747.878,416.292Z" style="fill:rgb(108,65,51);fill-rule:nonzero;stroke:rgb(108,65,51);stroke-width:1px;"/>
        </g>
        <g transform="matrix(1,0,0,1,23,-98)">
            <path d="M768.415,382.328L747.878,416.292L708.385,339.675L768.415,382.328Z" style="fill:rgb(169,99,95);fill-rule:nonzero;stroke:rgb(169,99,95);stroke-width:1px;"/>
        </g>
        <g transform="matrix(1,0,0,1,23,-98)">
            <path d="M783.422,310.45L708.385,339.675L702.066,310.45L783.422,310.45Z" style="fill:rgb(253,224,188);fill-rule:nonzero;stroke:rgb(253,224,188);stroke-width:1px;"/>
        </g>
        <g transform="matrix(1,0,0,1,23,-98)">
            <path d="M792.111,340.465L783.422,310.45L788.161,313.61L792.111,340.465Z" style="fill:rgb(178,170,166);fill-rule:nonzero;stroke:rgb(178,170,166);stroke-width:1px;"/>
        </g>
        <g transform="matrix(1,0,0,1,23,-98)">
            <path d="M792.111,340.465L785.792,376.799L768.415,382.328L792.111,340.465Z" style="fill:rgb(169,152,136);fill-rule:nonzero;stroke:rgb(169,152,136);stroke-width:1px;"/>
        </g>
        <g transform="matrix(1,0,0,1,23,-98)">
            <path d="M792.111,340.465L768.415,382.328L708.385,339.675L792.111,340.465Z" style="fill:rgb(241,217,195);fill-rule:nonzero;stroke:rgb(241,217,195);stroke-width:1px;"/>
        </g>
        <g transform="matrix(1,0,0,1,23,-98)">
            <path d="M792.111,340.465L708.385,339.675L783.422,310.45L792.111,340.465Z" style="fill:rgb(214,190,175);fill-rule:nonzero;stroke:rgb(214,190,175);stroke-width:1px;"/>
        </g>
    </g>
</svg>
